<?xml version="1.0" encoding="UTF-8"?>
<svg id="Layer_1" data-name="Layer 1" xmlns="http://www.w3.org/2000/svg" width="503.08" height="103.53" viewBox="0 0 503.08 103.53">
  <defs>
    <style>
      .cls-1 {
        fill: #fff;
        stroke-width: 0px;
      }
    </style>
  </defs>
  <g>
    <path class="cls-1" d="M472.82,82.96c-2.4,1.38-4.81,2.6-7.25,3.7,3.19,3.05,6.13,5.26,8.53,6.44,2.29,1.12,3.84,1.22,4.79.79.12-.06.24-.14.35-.2.83-.61,1.52-1.99,1.71-4.55.18-2.64-.26-6.32-1.32-10.6-2.15,1.56-4.43,3.05-6.8,4.43Z"/>
    <path class="cls-1" d="M458.91,85.21c-1.75-1.92-3.53-4.04-5.31-6.32l.31,7.85c1.66-.43,3.32-.94,5-1.52Z"/>
    <path class="cls-1" d="M457.27,76.75s3.5,4.92,5.43,6.97c2.76-1.14,5.5-2.5,8.2-4.06,2.7-1.56,5.26-3.25,7.64-5.08-1.36-4.43-3.25-9.36-5.63-14.58-3.11,2.07-6.4,4.12-9.83,6.11-1.96,1.13-3.9,2.19-5.82,3.2v7.43Z"/>
    <path class="cls-1" d="M450.66,51.44h1.37c1.19,0,2.15.96,2.15,2.15v10.68h3.1s2.57-.67,3.87-1.42l.04-.02c3.55-2.05,6.92-4.16,10.09-6.3-1.67-3.43-3.53-6.94-5.58-10.5-1.91-3.29-3.88-6.46-5.85-9.42h0c-1.97,1-3.96,2.05-5.91,3.15-2.55,1.41-5.07,2.91-7.55,4.46.21.19.42.39.63.6,2.5,2.54,3.35,5.36,3.64,6.61Z"/>
    <path class="cls-1" d="M491.2,61.88c-.49-4.39-1.54-8.96-3.15-13.54h0c-3.43,3.11-7.45,6.32-11.96,9.5,2.31,5,4.2,9.79,5.63,14.19,3.68-3.17,6.86-6.6,9.48-10.15Z"/>
    <path class="cls-1" d="M482.89,76.01c.12.43.22.85.32,1.28,1.14,4.49,1.69,8.45,1.52,11.72,3.88-4.57,6.15-10.9,6.66-18.28.08-1.02.1-2.07.1-3.15-2.52,2.94-5.4,5.79-8.61,8.43Z"/>
    <path class="cls-1" d="M502.67,45.92c-.67,3.35-1.83,6.74-3.45,10.05-1.16,2.36-2.54,4.67-4.12,6.94.24,2.76.26,5.48.08,8.08-.24,3.7-.93,7.21-2.03,10.46,7.76-10.09,11.19-22.93,9.52-35.54Z"/>
    <path class="cls-1" d="M437.21,17.86c.82.9,1.32,1.84,1.64,2.69,1.88-1.03,3.78-1.98,5.67-2.82-3.19-3.07-6.13-5.26-8.51-6.44-.89-.44-1.66-.7-2.32-.86v5.15c.76.25,2.23.86,3.53,2.28Z"/>
    <path class="cls-1" d="M461.75,88.2c-2.58.98-5.14,1.77-7.69,2.4l.05,1.35h1.46c.94,0,1.7.76,1.7,1.7v1.12c5.15,1.82,10.2,2.39,14.81,1.55-2.92-1.5-6.07-3.94-9.4-7.19-.3-.28-.63-.61-.93-.93Z"/>
    <path class="cls-1" d="M442.9,41.96c3.01-1.93,6.08-3.77,9.19-5.5,1.85-1.04,3.72-2.03,5.58-2.99-3.47-4.93-6.99-9.28-10.3-12.81-2.67,1.11-5.35,2.43-8,3.95v16.25c.67.11,1.99.39,3.53,1.1Z"/>
    <path class="cls-1" d="M448.35,16.17c3.88-1.46,7.78-2.56,11.6-3.25-.93-.55-1.85-1.04-2.78-1.48-4.95-2.42-9.89-3.7-14.54-3.76h-.93c-1.24.04-2.48.16-3.68.39,2.92,1.48,6.07,3.94,9.4,7.17l.93.93Z"/>
    <path class="cls-1" d="M474.42,54.35c4.67-3.31,8.77-6.66,12.16-9.83-1.14-2.74-2.5-5.48-4.06-8.2-1.48-2.56-3.09-4.98-4.79-7.25h0c-4.47,1.44-9.4,3.45-14.46,5.87,1.93,2.92,3.84,5.99,5.71,9.22,1.99,3.43,3.8,6.86,5.44,10.19Z"/>
    <path class="cls-1" d="M470.44,15.72c3.05,2.62,5.97,5.61,8.67,8.94.57-.16,1.14-.32,1.71-.47,4.22-1.1,8.02-1.69,11.25-1.5h.02c-4.59-4-11.01-6.34-18.5-6.85-1.04-.08-2.07-.12-3.15-.12Z"/>
    <path class="cls-1" d="M451.19,19.17c3.25,3.6,6.6,7.84,9.91,12.57,4.87-2.34,9.65-4.33,14.11-5.85-3.27-3.84-6.82-7.15-10.48-9.85h0c-4.39.49-8.96,1.52-13.54,3.13Z"/>
    <path class="cls-1" d="M491.07,45.49c1.46,3.88,2.54,7.78,3.25,11.6.53-.93,1.02-1.85,1.48-2.78,3.23-6.62,4.45-13.24,3.37-19.15-1.5,2.92-3.96,6.07-7.19,9.4-.3.3-.61.61-.91.93Z"/>
    <path class="cls-1" d="M490.85,26.44c-2.48.02-5.58.51-9.08,1.42-.06.02-.12.04-.16.04,1.48,2.07,2.88,4.24,4.2,6.52,1.38,2.4,2.6,4.81,3.68,7.25,3.07-3.19,5.28-6.15,6.46-8.53,1.16-2.4,1.2-3.94.73-4.87-.77-.97-2.27-1.67-4.81-1.81-.32,0-.67-.02-1.02-.02Z"/>
    <path class="cls-1" d="M465.77,12.13c1.28-.1,2.54-.16,3.78-.18,1.46-.02,2.88,0,4.31.1,3.68.26,7.19.93,10.44,2.03-8.14-6.23-18.05-9.69-28.21-9.91-.55-.02-1.02-.02-1.58-.02-1.91.02-3.84.16-5.75.41,3.35.69,6.74,1.85,10.07,3.47,2.36,1.16,4.67,2.52,6.94,4.1Z"/>
  </g>
  <g>
    <path class="cls-1" d="M409.89,66.37h11.69c0-2.15-.01-4.21,0-6.27.01-2.12.72-3.99,2.27-5.45,2.35-2.22,5.15-2.75,8.1-1.54,2.96,1.21,4.52,3.61,4.66,6.81.09,2.13.02,4.27.02,6.49h11.5c.04-.25.09-.41.09-.56.02-3.61.03-7.21.03-10.82,0-.39-.08-.84-.28-1.16-1.13-1.81-2.09-3.79-3.52-5.34-2.58-2.79-5.81-4.42-9.78-4.33-4.09.09-8.18,0-12.27.04-.79,0-1.61.15-2.37.39-4.11,1.29-7.09,3.94-9.14,7.7-.65,1.2-1.04,2.41-1.01,3.8.07,3.39.02,6.78.02,10.24Z"/>
    <path class="cls-1" d="M407.55,93.42h43.02v-18.18h2.99v-2.72h-48.96v2.73h2.95v18.18ZM444.52,75.37h2.98c0,3.92,0,7.76,0,11.6,0,.68-.06,1.36-.1,2.14h-2.88v-13.74ZM436.36,75.32h4.91v13.79h-4.91v-13.79ZM425.09,75.31h8.03v13.81h-8.03v-13.81ZM416.98,75.32h4.88v13.81h-4.88v-13.81ZM410.69,75.29h3v13.81h-3v-13.81Z"/>
    <path class="cls-1" d="M398.48,100.04v3.48h61.18v-3.48h-61.18Z"/>
    <path class="cls-1" d="M453.6,95.43h-49.02v2.68h49.02v-2.68Z"/>
    <path class="cls-1" d="M435.24,29.96h-12.18v8.69h12.18v-8.69Z"/>
    <path class="cls-1" d="M429.08,54.45c-3.18.01-5.65,2.44-5.67,5.58-.02,3.21,2.45,5.71,5.66,5.73,3.18.02,5.66-2.5,5.65-5.72-.01-3.15-2.48-5.59-5.65-5.58Z"/>
    <path class="cls-1" d="M453.61,68.37h-49v1.68h49v-1.68Z"/>
    <path class="cls-1" d="M435.19,24.31c0-3.63-2.78-5.6-7.32-5.35-2.58.14-4.99,2.84-4.72,5.35h12.04Z"/>
    <path class="cls-1" d="M408.04,54.38h-1.95v11.94h1.95v-11.94Z"/>
    <path class="cls-1" d="M436.8,40.67h-15.43v1.67h15.43v-1.67Z"/>
    <path class="cls-1" d="M452.08,54.41h-1.99v12.01h1.99v-12.01Z"/>
    <path class="cls-1" d="M435.23,26.28h-12.16v1.69h12.16v-1.69Z"/>
    <path class="cls-1" d="M428.48,17.07h1.33V4.84c-.42-.02-.77-.04-1.33-.07v12.29Z"/>
    <path class="cls-1" d="M429.15,2.88c1,.09,1.61-.32,1.65-1.33.03-.85-.77-1.56-1.68-1.55-.89,0-1.76.75-1.7,1.55.08,1.05.75,1.45,1.73,1.33Z"/>
  </g>
  <g>
    <path class="cls-1" d="M0,92.56V30.28h8.72l21.17,43.86,21-43.86h8.81v62.28h-7.47v-48.84l-19.57,40.66h-5.6L7.47,44.07v48.49H0Z"/>
    <path class="cls-1" d="M92.26,93.62c-4.15,0-7.83-1.01-11.03-3.02s-5.71-4.86-7.52-8.54c-1.81-3.68-2.71-7.98-2.71-12.9s.9-9.22,2.71-12.9c1.81-3.68,4.33-6.52,7.56-8.54,3.23-2.02,6.95-3.02,11.17-3.02,4.51,0,8.27,1.01,11.3,3.02,3.02,2.02,5.31,4.72,6.85,8.1,1.54,3.38,2.31,7.09,2.31,11.12v1.78c0,.59-.03,1.31-.09,2.14h-36.21v-5.78h29c-.12-4.57-1.44-8.05-3.96-10.45-2.52-2.4-5.65-3.6-9.39-3.6-2.49,0-4.79.61-6.89,1.82-2.11,1.22-3.81,3.01-5.12,5.38-1.31,2.37-1.96,5.34-1.96,8.9v2.49c0,3.92.65,7.19,1.96,9.83,1.3,2.64,3.01,4.61,5.12,5.92,2.1,1.3,4.4,1.96,6.89,1.96,3.32,0,5.93-.64,7.83-1.91,1.9-1.27,3.29-3.1,4.18-5.47h7.38c-.71,2.61-1.94,4.95-3.69,7.03-1.75,2.08-3.95,3.71-6.58,4.89-2.64,1.19-5.68,1.78-9.12,1.78Z"/>
    <path class="cls-1" d="M140.12,93.62c-4.21,0-7.7-.64-10.45-1.91-2.76-1.28-4.85-3.05-6.27-5.34-1.42-2.28-2.28-4.94-2.58-7.96h7.65c.24,1.6.79,3.07,1.65,4.4.86,1.33,2.12,2.42,3.78,3.25,1.66.83,3.77,1.25,6.32,1.25,2.02,0,3.74-.31,5.16-.93,1.42-.62,2.5-1.5,3.25-2.62.74-1.13,1.11-2.43,1.11-3.92,0-1.96-.43-3.48-1.29-4.58-.86-1.1-2.11-1.93-3.74-2.49-1.63-.56-3.66-.99-6.09-1.29-2.61-.36-4.92-.86-6.94-1.51-2.02-.65-3.72-1.51-5.12-2.58-1.39-1.07-2.45-2.4-3.16-4s-1.07-3.5-1.07-5.69c0-2.55.68-4.8,2.05-6.76,1.36-1.96,3.31-3.48,5.83-4.58,2.52-1.1,5.5-1.65,8.94-1.65,5.04,0,9.03,1.16,11.97,3.47,2.94,2.31,4.67,5.6,5.2,9.88h-7.38c-.3-2.19-1.31-3.91-3.02-5.16-1.72-1.25-4-1.87-6.85-1.87-3.02,0-5.31.56-6.85,1.69-1.54,1.13-2.31,2.61-2.31,4.45,0,1.37.34,2.6,1.02,3.69.68,1.1,1.85,2.02,3.51,2.76,1.66.74,3.88,1.29,6.67,1.65,3.5.42,6.46,1.08,8.9,2,2.43.92,4.28,2.33,5.56,4.23,1.27,1.9,1.88,4.48,1.82,7.74,0,3.08-.73,5.69-2.18,7.83-1.45,2.13-3.47,3.77-6.05,4.89s-5.59,1.69-9.03,1.69Z"/>
    <path class="cls-1" d="M168.5,92.56V28.5h7.47v24.82c1.54-2.67,3.65-4.77,6.32-6.32,2.67-1.54,5.54-2.31,8.63-2.31,3.62,0,6.69.67,9.21,2,2.52,1.33,4.45,3.37,5.78,6.09,1.33,2.73,2,6.2,2,10.41v29.36h-7.38v-28.56c0-4.27-1.01-7.49-3.02-9.65-2.02-2.16-4.75-3.25-8.19-3.25-2.43,0-4.66.58-6.67,1.74-2.02,1.16-3.63,2.86-4.85,5.12-1.22,2.25-1.82,4.98-1.82,8.18v26.42h-7.47Z"/>
    <path class="cls-1" d="M241.19,93.62c-4.51,0-8.51-.8-12.01-2.4-3.5-1.6-6.24-3.88-8.23-6.85-1.99-2.97-3.01-6.5-3.07-10.59h11.3c.06,2.08.56,3.93,1.51,5.56.95,1.63,2.31,2.92,4.09,3.87,1.78.95,3.91,1.42,6.41,1.42,2.14,0,3.99-.34,5.56-1.02,1.57-.68,2.77-1.66,3.6-2.94.83-1.28,1.25-2.77,1.25-4.49,0-1.96-.44-3.57-1.33-4.85-.89-1.27-2.12-2.36-3.69-3.25-1.57-.89-3.41-1.68-5.52-2.36-2.11-.68-4.31-1.38-6.63-2.09-4.92-1.66-8.65-3.8-11.17-6.41-2.52-2.61-3.78-6.08-3.78-10.41,0-3.62.87-6.73,2.62-9.34,1.75-2.61,4.18-4.64,7.3-6.09,3.11-1.45,6.72-2.18,10.81-2.18s7.78.74,10.9,2.22c3.11,1.48,5.56,3.54,7.34,6.18,1.78,2.64,2.7,5.8,2.76,9.47h-11.39c0-1.54-.39-2.98-1.16-4.31-.77-1.33-1.88-2.43-3.34-3.29-1.45-.86-3.22-1.29-5.29-1.29-1.78-.06-3.37.22-4.76.85-1.39.62-2.51,1.51-3.34,2.67-.83,1.16-1.25,2.59-1.25,4.31s.38,3.04,1.16,4.14c.77,1.1,1.87,2.02,3.29,2.76,1.42.74,3.07,1.44,4.94,2.09,1.87.65,3.93,1.36,6.18,2.13,3.08,1.01,5.89,2.24,8.41,3.69,2.52,1.45,4.52,3.34,6.01,5.65,1.48,2.31,2.22,5.31,2.22,8.99,0,3.2-.83,6.18-2.49,8.94-1.66,2.76-4.09,4.98-7.29,6.67-3.2,1.69-7.18,2.54-11.92,2.54Z"/>
    <path class="cls-1" d="M292.52,92.56c-3.02,0-5.65-.47-7.87-1.42-2.22-.95-3.95-2.52-5.16-4.71-1.22-2.19-1.82-5.16-1.82-8.9v-20.91h-7.74v-8.9h7.74l1.25-11.83h9.43v11.83h12.1v8.9h-12.1v20.91c0,2.25.47,3.81,1.42,4.67.95.86,2.61,1.29,4.98,1.29h5.52v9.07h-7.74Z"/>
    <path class="cls-1" d="M325.44,93.62c-3.62,0-6.66-.62-9.12-1.87-2.46-1.25-4.29-2.91-5.47-4.98-1.19-2.08-1.78-4.36-1.78-6.85,0-2.79.73-5.22,2.18-7.29,1.45-2.08,3.6-3.69,6.45-4.85,2.85-1.16,6.38-1.74,10.59-1.74h11.3c0-2.37-.34-4.34-1.02-5.92-.68-1.57-1.71-2.76-3.07-3.56-1.37-.8-3.14-1.2-5.34-1.2-2.43,0-4.51.56-6.23,1.69-1.72,1.13-2.79,2.82-3.2,5.07h-10.5c.36-3.2,1.44-5.96,3.25-8.27,1.81-2.31,4.18-4.09,7.12-5.34,2.94-1.25,6.12-1.87,9.56-1.87,4.27,0,7.9.73,10.9,2.18,2.99,1.45,5.28,3.51,6.85,6.18,1.57,2.67,2.36,5.93,2.36,9.79v27.76h-9.16l-1.07-7.12c-.59,1.19-1.35,2.27-2.27,3.25-.92.98-1.99,1.84-3.2,2.58-1.22.74-2.57,1.32-4.05,1.74-1.48.41-3.17.62-5.07.62ZM327.84,85.17c1.72,0,3.26-.31,4.63-.93,1.36-.62,2.52-1.51,3.47-2.67.95-1.16,1.71-2.46,2.27-3.92.56-1.45.9-2.98,1.02-4.58v-.18h-9.79c-2.14,0-3.87.27-5.21.8-1.33.53-2.33,1.26-2.98,2.18-.65.92-.98,2-.98,3.25s.31,2.4.93,3.29,1.51,1.57,2.67,2.05,2.48.71,3.96.71Z"/>
    <path class="cls-1" d="M380.33,92.56c-3.02,0-5.65-.47-7.87-1.42-2.22-.95-3.95-2.52-5.16-4.71-1.22-2.19-1.82-5.16-1.82-8.9v-20.91h-7.74v-8.9h7.74l1.25-11.83h9.43v11.83h12.1v8.9h-12.1v20.91c0,2.25.47,3.81,1.42,4.67.95.86,2.61,1.29,4.98,1.29h5.52v9.07h-7.74Z"/>
  </g>
</svg>